<svg xmlns="http://www.w3.org/2000/svg" xmlns:xlink="http://www.w3.org/1999/xlink" width="97" height="126.605" viewBox="0 0 97 126.605">
  <defs>
    <style>
      .cls-1, .cls-3 {
        fill: none;
      }

      .cls-2 {
        isolation: isolate;
      }

      .cls-3 {
        stroke: #fa8581;
        stroke-linecap: round;
        stroke-width: 6px;
      }

      .cls-4 {
        fill: #e0e2e5;
      }

      .cls-5 {
        fill: #fff;
      }

      .cls-6 {
        fill: #b2d8e7;
      }

      .cls-7 {
        clip-path: url(#clip-path);
      }

      .cls-8 {
        fill: #636266;
        font-size: 14px;
        font-family: Helvetica;
      }
    </style>
    <clipPath id="clip-path">
      <path id="Clip_20" data-name="Clip 20" class="cls-1" d="M0,0H39.754V33.249H0Z"/>
    </clipPath>
  </defs>
  <g id="Group_2286" data-name="Group 2286" transform="translate(-24 -252.395)">
    <g id="Group_369" data-name="Group 369" class="cls-2" transform="translate(113.705 336.1) rotate(180)">
      <path id="Path_2" data-name="Path 2" class="cls-3" d="M40.352,0A40.352,40.352,0,1,1,0,40.352,40.352,40.352,0,0,1,40.352,0Z"/>
    </g>
    <ellipse id="Ellipse_53" data-name="Ellipse 53" class="cls-4" cx="34.955" cy="34.463" rx="34.955" ry="34.463" transform="translate(39 261)"/>
    <g id="icon_Conduct1" data-name="icon/Conduct1" transform="translate(50 272)">
      <g id="Group_22" data-name="Group 22" transform="translate(3.516 6.603)">
        <path id="Fill_1" data-name="Fill 1" class="cls-5" d="M13.707,20.748a3.228,3.228,0,0,0-.913-2.6,3.178,3.178,0,0,0-3.245-.783,3.231,3.231,0,0,0-.882-1.727,3.175,3.175,0,0,0-4.516,0l-1.477,1.49c-.04.044-.083.088-.123.137A9.6,9.6,0,0,1,0,10.374,10.547,10.547,0,0,1,9.556.024a10.837,10.837,0,0,1,7.1,2.321L13.127,5.655l-1.6,1.619a3.416,3.416,0,0,0-1,2.358,3.248,3.248,0,0,0,.937,2.362,3.281,3.281,0,0,0,4.666-.056,6.873,6.873,0,0,1,3.276-1.771,9.573,9.573,0,0,1,1.394-.1l.008.582h0a.858.858,0,0,0-.612.257.889.889,0,0,0,0,1.241l8.578,8.647a3.663,3.663,0,0,0,.413.349.889.889,0,0,0,.207.345,1.6,1.6,0,0,1,.064,2.245,1.562,1.562,0,0,1-2.22-.06L18,14.358a.861.861,0,0,0-1.223,0,.88.88,0,0,0,0,1.237l8.384,8.454a.844.844,0,0,0,.159.225,1.6,1.6,0,0,1,.064,2.245,1.565,1.565,0,0,1-2.22-.056L16,19.25A.845.845,0,0,0,15.394,19h0a.842.842,0,0,0-.612.257.885.885,0,0,0,0,1.237l1.152,1.157-.044.044a3.17,3.17,0,0,0-2.184-.944" transform="translate(1.758 1.602)"/>
        <path id="Fill_3" data-name="Fill 3" class="cls-5" d="M24.027,10.448A9.816,9.816,0,0,1,21.807,17a3.475,3.475,0,0,0-.563-.752l-7-7.086a3.884,3.884,0,0,0,.551-.6.89.89,0,0,0-.172-1.238A.87.87,0,0,0,13.4,7.5c-.7.95-1.757.958-3.563.9a15.7,15.7,0,0,0-2.92.1,8.725,8.725,0,0,0-4.257,2.277,1.569,1.569,0,0,1-2.233.061A1.523,1.523,0,0,1,0,9.728,1.684,1.684,0,0,1,.5,8.571L2.077,6.966l4.261-4A11.867,11.867,0,0,1,14.418.026a10.614,10.614,0,0,1,9.609,10.422" transform="translate(14.065 1.602)"/>
        <path id="Fill_5" data-name="Fill 5" class="cls-6" d="M9.894.306C9.6-.244,8.648.116,8,.116A9.4,9.4,0,0,0,0,4.556L.781,6.219l7.874,7.847S14.633,9.215,9.894.306" transform="translate(26.958 5.118)"/>
        <path id="Fill_7" data-name="Fill 7" class="cls-6" d="M17.937,9.324c-.108.035-3.492,3.418-5.249.444-1.313-2.22,3.862-6.251,4.136-6.484A9.542,9.542,0,0,0,9.624,0,9.7,9.7,0,0,0,0,9.768C0,12.976,3.877,17.6,3.877,17.6s1.372-3.4,4.872-3.4a3.28,3.28,0,0,1,1.75,2.664c4.812.888,3.228,3.7,3.228,3.7s4.647-.59,2.974,3.8c4.735,0,2.856,3.651,2.856,3.651l1,1.282h2.187l1.118-1.576.194-1.531,2.281.4,1.07-.962.327-1.957-.178-.589,1.75.444,1.75-.444L19.249,10.656Z" transform="translate(0.586 2.774)"/>
        <path id="Fill_9" data-name="Fill 9" class="cls-5" d="M3.137.445a1.7,1.7,0,0,1,0,2.144L2.221,3.657a1.175,1.175,0,0,1-1.842,0,1.7,1.7,0,0,1,0-2.144L1.295.445A1.2,1.2,0,0,1,2.214,0a1.206,1.206,0,0,1,.923.445" transform="translate(16.409 27.388)"/>
        <path id="Fill_11" data-name="Fill 11" class="cls-5" d="M3.7.4a1.36,1.36,0,0,1,0,1.927L2.327,3.7A1.363,1.363,0,1,1,.4,1.775L1.775.4A1.36,1.36,0,0,1,3.7.4" transform="translate(12.307 23.872)"/>
        <path id="Fill_13" data-name="Fill 13" class="cls-5" d="M4.841.433a1.478,1.478,0,0,1,0,2.091l-2.32,2.32A1.479,1.479,0,0,1,.43,2.753L2.754.433a1.473,1.473,0,0,1,2.087,0" transform="translate(8.791 20.355)"/>
        <path id="Fill_15" data-name="Fill 15" class="cls-5" d="M3.7.4a1.368,1.368,0,0,1,0,1.931L2.327,3.7A1.363,1.363,0,0,1,.4,1.775L1.775.4A1.369,1.369,0,0,1,3.7.4" transform="translate(5.274 18.011)"/>
        <path id="Fill_17" data-name="Fill 17" class="cls-5" d="M0,.134c.393,0,.786.012,1.175.024A10.237,10.237,0,0,0,3.961,0l7.273,7.324A1.571,1.571,0,0,1,11.3,9.535a1.55,1.55,0,0,1-2.2-.059L.613.961A.857.857,0,0,0,.008.708Z" transform="translate(22.856 11.565)"/>
        <g id="Group_21" data-name="Group 21" transform="translate(0 0)">
          <path id="Clip_20-2" data-name="Clip 20" class="cls-1" d="M0,0H39.754V33.249H0Z"/>
          <g id="Group_21-2" data-name="Group 21" class="cls-7">
            <path id="Fill_19" data-name="Fill 19" d="M17.46,33.249a3.2,3.2,0,0,1-3.2-3.122,3.04,3.04,0,0,1-.319.02,3.2,3.2,0,0,1-2.268-.935,3.237,3.237,0,0,1-.909-1.849,3.077,3.077,0,0,1-.757.091,3.19,3.19,0,0,1-3.2-3.309H6.688a3.169,3.169,0,0,1-2.263-.934,3.2,3.2,0,0,1-.9-2.732A11.129,11.129,0,0,1,0,11.981,12.244,12.244,0,0,1,11.191.031C11.444.01,11.7,0,11.962,0a11.552,11.552,0,0,1,3.994.748,14.466,14.466,0,0,1,3.831,2.138A13.643,13.643,0,0,1,27.795,0c.259,0,.517.01.768.03a12.244,12.244,0,0,1,11.19,11.95,11.037,11.037,0,0,1-3.32,8.319.8.8,0,0,1-.215.147,3.156,3.156,0,0,1-.92,1.928,3.213,3.213,0,0,1-1.953.919,3.248,3.248,0,0,1-.816,3.162,3.215,3.215,0,0,1-2.288.938,3.334,3.334,0,0,1-.881-.119,3.192,3.192,0,0,1-3.208,2.883h0a3.317,3.317,0,0,1-.646-.068,3.193,3.193,0,0,1-3.22,3.05,3.394,3.394,0,0,1-1.295-.254,3.451,3.451,0,0,1-1.1-.736l-.163.163A3.2,3.2,0,0,1,17.46,33.249Zm1.028-5.691a1.458,1.458,0,0,0-1.036.43l-1.032,1.03A1.465,1.465,0,0,0,18.5,31.085l1.032-1.03a1.464,1.464,0,0,0-1.04-2.5Zm-6.18-8.789a3.229,3.229,0,0,1,2.266.932,3.181,3.181,0,0,1,.917,2.577,3.2,3.2,0,0,1,3.128,3.2,2.77,2.77,0,0,1-.024.354,3.193,3.193,0,0,1,2.487,5.066.1.1,0,0,1,.016.014.106.106,0,0,0,.015.014,1.671,1.671,0,0,0,1.169.49A1.47,1.47,0,0,0,23.773,29.9a1.653,1.653,0,0,0-.494-1.141.972.972,0,0,1-.159-.223l-5.392-5.365-1.156-1.146a.868.868,0,0,1,0-1.225.848.848,0,0,1,.613-.255h0a.857.857,0,0,1,.61.251l7.189,7.146a1.651,1.651,0,0,0,1.167.486,1.487,1.487,0,0,0,1.06-.43,1.577,1.577,0,0,0-.063-2.223.831.831,0,0,1-.16-.223l-8.412-8.371A.868.868,0,0,1,19.8,15.949l9.269,9.222a1.67,1.67,0,0,0,1.169.49A1.467,1.467,0,0,0,31.73,24.17a1.635,1.635,0,0,0-.492-1.161.873.873,0,0,1-.207-.342,3.634,3.634,0,0,1-.415-.346l-8.608-8.562a.872.872,0,0,1,0-1.229.865.865,0,0,1,.614-.255h0a.878.878,0,0,1,.614.255l8.608,8.562a1.656,1.656,0,0,0,1.17.49A1.469,1.469,0,0,0,34.5,20.094a1.64,1.64,0,0,0-.494-1.166L26.63,11.563a7.577,7.577,0,0,1-1.816.181c-.343,0-.7-.012-1.01-.023h-.039c-.377-.011-.766-.023-1.152-.023a9.671,9.671,0,0,0-1.4.1,6.859,6.859,0,0,0-3.288,1.754,3.387,3.387,0,0,1-2.4.993A3.207,3.207,0,0,1,12.3,11.269a3.357,3.357,0,0,1,1-2.334l1.606-1.6,3.539-3.277a11.235,11.235,0,0,0-6.5-2.322c-.208,0-.416.008-.618.024A10.5,10.5,0,0,0,1.739,12,9.44,9.44,0,0,0,4.3,18.825c.025-.03.052-.058.078-.086l.045-.049L5.9,17.214a3.2,3.2,0,0,1,5.416,1.71A3.2,3.2,0,0,1,12.309,18.768Zm3.107,5.242a1.445,1.445,0,0,0-1.036.429L12.9,25.916a1.464,1.464,0,0,0,2.072,2.068l1.478-1.475a1.463,1.463,0,0,0-1.036-2.5ZM12.308,20.5a1.46,1.46,0,0,0-1.036.429l-2.307,2.3a1.463,1.463,0,0,0,1.04,2.5,1.456,1.456,0,0,0,1.036-.427l2.3-2.3a1.454,1.454,0,0,0,.43-1.037,1.44,1.44,0,0,0-.43-1.034A1.457,1.457,0,0,0,12.308,20.5ZM8.167,18.013a1.456,1.456,0,0,0-1.036.426l-1.478,1.48a1.464,1.464,0,0,0,2.072,2.068l1.482-1.475a1.463,1.463,0,0,0-1.04-2.5ZM28.114,8.759a.866.866,0,0,1,.52.172.867.867,0,0,1,.171,1.217,3.861,3.861,0,0,1-.55.589L35.238,17.7a3.436,3.436,0,0,1,.562.74A9.582,9.582,0,0,0,38.016,12,10.5,10.5,0,0,0,28.427,1.756c-.212-.017-.43-.025-.647-.025a10.6,10.6,0,0,0-4.192.935,13.137,13.137,0,0,0-3.223,1.977L16.113,8.58l-1.578,1.579a1.649,1.649,0,0,0-.494,1.138,1.47,1.47,0,0,0,1.488,1.516,1.656,1.656,0,0,0,1.17-.49,8.829,8.829,0,0,1,4.248-2.239,11.8,11.8,0,0,1,1.792-.119c.39,0,.762.012,1.121.023.377.012.688.021.977.021,1.589,0,2.148-.331,2.578-.9a.858.858,0,0,1,.574-.338A.926.926,0,0,1,28.114,8.759Z" transform="translate(0 0)"/>
          </g>
        </g>
      </g>
    </g>
    <text id="Celebrating_Montreal" data-name="Celebrating Montreal" class="cls-8" transform="translate(24 346)"><tspan x="9.197" y="11">Tell us about </tspan><tspan x="23.99" y="25">yourself</tspan></text>
  </g>
</svg>
